C:\Users\r0593348\3dpredictsim\Results\batch_windlass\Pog_s1_tmt_bCst_d00_k1000_WL40_ig24_act_TTC_GRF.mot
nRows=12
nColumns=19

name C:\Users\r0593348\3dpredictsim\Results\batch_windlass\Pog_s1_tmt_bCst_d00_k1000_WL40_ig24_act_TTC_GRF.mot
datacolumns 19
datarows 12
range 0.6158254205 0.7513070130
endheader
time 	ground_force_vx	ground_force_vy	ground_force_vz	ground_force_px	ground_force_py	ground_force_pz	1_ground_force_vx	1_ground_force_vy	1_ground_force_vz	1_ground_force_px	1_ground_force_py	1_ground_force_pz	ground_torque_x	ground_torque_y	ground_torque_z	1_ground_torque_x	1_ground_torque_y	1_ground_torque_z
        0.6158254205	       44.5072494195	      246.2189901107	        7.1011721220	        0.4157865048	        0.0000000000	        0.0125842241	      -42.4542171135	       30.1073503763	      -10.4259206210	        0.9406352092	        0.0000000000	       -0.0570716439	        0.0000000000	        0.0000000000	        0.0000000000	        0.0000000000	        0.0000000000	        0.0000000000	
        0.6281419289	       33.7943204673	      194.7864953454	       10.2827989387	        0.4200141889	        0.0000000000	        0.0098182497	     -118.0930155497	      100.9000266596	      -33.6333914919	        0.9520429150	        0.0000000000	       -0.0542858290	        0.0000000000	        0.0000000000	        0.0000000000	        0.0000000000	        0.0000000000	        0.0000000000	
        0.6404584373	       27.2214967270	      142.4561380192	       16.0766571365	        0.4201583634	        0.0000000000	        0.0103404125	     -115.1319584147	      269.3250304381	      -36.3089528606	        0.9598141961	        0.0000000000	       -0.0523888087	        0.0000000000	        0.0000000000	        0.0000000000	        0.0000000000	        0.0000000000	        0.0000000000	
        0.6527749457	       15.7012706129	       77.4102576606	       12.8560454023	        0.4203987873	        0.0000000000	        0.0104407002	      -80.1211002057	      551.9726806188	        4.9107677272	        0.9651375983	        0.0000000000	       -0.0518174068	        0.0000000000	        0.0000000000	        0.0000000000	        0.0000000000	        0.0000000000	        0.0000000000	
        0.6650914541	       -4.2397520034	       14.5714489400	        2.0835674060	        0.4168435335	        0.0000000000	        0.0096657838	     -114.4516396517	      855.9058404581	       29.5673685235	        0.9762520377	        0.0000000000	       -0.0534982084	        0.0000000000	        0.0000000000	        0.0000000000	        0.0000000000	        0.0000000000	        0.0000000000	
        0.6774079625	        0.0902359689	       -0.0816446336	        0.0079597410	        0.0000000000	        0.0000000000	        0.0000000000	     -149.6149298082	      991.8555368276	       34.4360948481	        0.9842518212	        0.0000000000	       -0.0548065746	        0.0000000000	        0.0000000000	        0.0000000000	        0.0000000000	        0.0000000000	        0.0000000000	
        0.6897244710	       -2.5697872458	        2.0150408029	       -0.2891679425	        0.0000000000	        0.0000000000	        0.0000000000	     -156.6072605110	      986.5049880396	       32.5726147927	        0.9903402038	        0.0000000000	       -0.0556499939	        0.0000000000	        0.0000000000	        0.0000000000	        0.0000000000	        0.0000000000	        0.0000000000	
        0.7020409794	       -4.8319597870	        3.2330920347	       -0.5926730298	        0.0000000000	        0.0000000000	        0.0000000000	     -152.7206353948	      941.3338915362	       26.2208424860	        0.9952948046	        0.0000000000	       -0.0558997025	        0.0000000000	        0.0000000000	        0.0000000000	        0.0000000000	        0.0000000000	        0.0000000000	
        0.7143574878	       -1.5658799576	        0.9495620721	       -0.1827714062	        0.0000000000	        0.0000000000	        0.0000000000	     -132.6817775939	      885.3282465623	       23.1797480295	        0.9999310255	        0.0000000000	       -0.0555310767	        0.0000000000	        0.0000000000	        0.0000000000	        0.0000000000	        0.0000000000	        0.0000000000	
        0.7266739962	       -0.8239438035	        0.4677378090	       -0.0879047981	        0.0000000000	        0.0000000000	        0.0000000000	     -115.4969128395	      825.5656384165	       21.5874870419	        1.0054141675	        0.0000000000	       -0.0549191847	        0.0000000000	        0.0000000000	        0.0000000000	        0.0000000000	        0.0000000000	        0.0000000000	
        0.7389905046	       -0.4975865269	        0.2698335522	       -0.0494766532	        0.0000000000	        0.0000000000	        0.0000000000	     -100.1546461033	      768.7527449965	       21.3842536053	        1.0104790366	        0.0000000000	       -0.0542640829	        0.0000000000	        0.0000000000	        0.0000000000	        0.0000000000	        0.0000000000	        0.0000000000	
        0.7513070130	       -0.2706034506	        0.1418825244	       -0.0251841395	        0.0000000000	        0.0000000000	        0.0000000000	      -86.5286172549	      721.0128733242	       21.6910865719	        1.0149120878	        0.0000000000	       -0.0537551374	        0.0000000000	        0.0000000000	        0.0000000000	        0.0000000000	        0.0000000000	        0.0000000000	
